# xmcd
#
# Track frame offsets: 
#        150
#        11887
#        23787
#        35505
#        45977
#        57682
#        70915
#        82315
#        91212
#        103242
#        113195
#        122720
#        133625
#        147577
#        159082
#        170647
#        181465
#        190487
#        202487
#        215592
#        226787
#        237430
#        248862
#        258912
#        268565
#
# Disc length: 3748 seconds
#
# Revision: 4
# Processed by: cddbd v1.5.1PL2 Copyright (c) Steve Scherf et al.
# Submitted via: ExactAudioCopy v0.95b3
#
DISCID=7b0ea219
DTITLE=Patsy Cline - The Very Best Of [CD1]
DYEAR=1997
DGENRE=Country
TTITLE0=Walking after Midnight
TTITLE1=Let the Teardrops Fall
TTITLE2=I've Loved And Lost Again
TTITLE3=Too Many Secrets
TTITLE4=In Care of The Blues
TTITLE5=If I Could See the World through the Eyes of a Child
TTITLE6=Hungry for Love
TTITLE7=Ain't no Wheel on this Ship
TTITLE8=If I Could Stay Asleep
TTITLE9=I'm Blue Again
TTITLE10=Love Love Love Me Honey
TTITLE11=I Can See an Angel
TTITLE12=A Church, A Courtroom, and Then Goodbye
TTITLE13=Lonely Street
TTITLE14=Crazy Dreams
TTITLE15=Got a lotta Rhytm in my Soul
TTITLE16=Try Again
TTITLE17=Never no more
TTITLE18=Life's Railway to Heaven
TTITLE19=There He Goes
TTITLE20=Love Sick Blues
TTITLE21=Just out of Reach
TTITLE22=Turn the Cards Slowly
TTITLE23=I'm Moving Along
TTITLE24=Just a Closer Walk With Thee
EXTD=
EXTT0=
EXTT1=
EXTT2=
EXTT3=
EXTT4=
EXTT5=
EXTT6=
EXTT7=
EXTT8=
EXTT9=
EXTT10=
EXTT11=
EXTT12=
EXTT13=
EXTT14=
EXTT15=
EXTT16=
EXTT17=
EXTT18=
EXTT19=
EXTT20=
EXTT21=
EXTT22=
EXTT23=
EXTT24=
PLAYORDER=
